<svg width="314" height="226" viewBox="0 0 314 226" fill="none" xmlns="http://www.w3.org/2000/svg">
<path d="M123.547 0.601451L123.547 34.7345C119.807 34.1331 116.068 33.9827 112.329 33.9827C74.6365 33.9827 43.2264 60.5975 35.4486 96.0838L101.111 96.0838L101.111 129.916H35.4486C43.2264 165.403 74.6365 192.017 112.329 192.017C116.218 192.017 119.957 191.717 123.547 191.265L123.547 225.399C119.807 225.699 116.068 226 112.329 226C50.2562 225.85 -1.09107e-05 175.327 0 112.925C1.09107e-05 50.5229 50.2563 -1.08531e-05 112.329 0C116.068 6.53803e-07 119.807 0.150352 123.547 0.601451Z" fill="#60C2FF"/>
<path d="M189.84 0.601451V34.7345C193.579 34.1331 197.319 33.9827 201.058 33.9827C238.75 33.9827 270.16 60.5975 277.938 96.0838L212.276 96.0838V129.916H277.938C270.16 165.403 238.75 192.017 201.058 192.017C197.169 192.017 193.43 191.717 189.84 191.265L189.84 225.399C193.579 225.699 197.319 226 201.058 226C263.13 225.85 313.387 175.327 313.387 112.925C313.387 50.5229 263.13 -1.08531e-05 201.058 0C197.319 6.53803e-07 193.579 0.150352 189.84 0.601451Z" fill="#60C2FF"/>
</svg>
