<svg width="268" height="227" viewBox="0 0 268 227" fill="none" xmlns="http://www.w3.org/2000/svg">
<path d="M200.004 196.061V106.089C200.004 103.613 197.972 101.605 195.465 101.605H171.935C168.294 101.605 168.178 98.057 168.178 94.6052L168.178 80.5948C168.178 76.5651 170.429 75.1421 171.935 75.1421H195.465C197.972 75.1421 200.004 73.1345 200.004 70.658V30.6284C200.004 28.1519 197.972 26.1442 195.465 26.1442L156.49 25.5217C152.852 25.5217 147.955 22.184 144.919 19.1577C144.9 19.1391 144.881 19.1224 144.859 19.1072L120.827 2.21503C120.622 2.07054 120.57 1.78545 120.733 1.59428C121.59 0.589244 122.857 0 124.203 0H217.106C244.678 0 267.03 22.0837 267.03 49.3254V222.525C267.03 225.001 264.998 227.009 262.492 227.009H113.343C110.837 227.009 108.805 225.001 108.805 222.525V205.03C108.805 202.553 110.837 200.546 113.343 200.546H195.465C197.972 200.546 200.004 198.538 200.004 196.061Z" fill="#60C2FF"/>
<path d="M71.5648 101.605C69.0582 101.605 67.0262 103.613 67.0262 106.089V196.061C67.0262 198.538 69.0582 200.546 71.5648 200.546H95.9273C98.4338 200.546 100.466 202.553 100.466 205.03V222.525C100.466 225.001 98.4338 227.009 95.9273 227.009H49.9244C22.3519 227.009 0 204.925 0 177.683V49.3254C0 22.0837 22.3519 0 49.9244 0H102.508C103.471 0 104.408 0.302107 105.185 0.862702L128.993 18.0387C132.539 20.5971 130.708 26.1442 126.316 26.1442L71.5648 26.1442C69.0582 26.1442 67.0262 28.1518 67.0262 30.6284V70.658C67.0262 73.1345 69.0582 75.1421 71.5648 75.1421H155.858C158.364 75.1421 160.396 77.1497 160.396 79.6262V97.1211C160.396 99.5976 158.364 101.605 155.858 101.605H71.5648Z" fill="#60C2FF"/>
</svg>
