<svg width="291" height="251" viewBox="0 0 291 251" fill="none" xmlns="http://www.w3.org/2000/svg">
<g filter="url(#filter0_dddddf_2009_27)">
<path fill-rule="evenodd" clip-rule="evenodd" d="M156.919 31.1577C156.9 31.1391 156.881 31.1224 156.859 31.1072L132.827 14.215C132.622 14.0705 132.57 13.7855 132.733 13.5943C133.59 12.5892 134.857 12 136.203 12H229.106C256.678 12 279.03 34.0837 279.03 61.3254V234.525C279.03 237.001 276.998 239.009 274.492 239.009H125.343C122.837 239.009 120.805 237.001 120.805 234.525V217.03C120.805 214.553 122.837 212.546 125.343 212.546H207.465C209.972 212.546 212.004 210.538 212.004 208.061V118.089C212.004 115.613 209.972 113.605 207.465 113.605H183.935C180.294 113.605 180.178 110.057 180.178 106.605L180.178 92.5948C180.178 88.5651 182.429 87.1421 183.935 87.1421H207.465C209.972 87.1421 212.004 85.1345 212.004 82.658V42.6284C212.004 40.1519 209.972 38.1442 207.465 38.1442L168.49 37.5217C164.852 37.5217 159.955 34.184 156.919 31.1577ZM168.473 39.5217L207.449 40.1442H207.465C208.89 40.1442 210.004 41.2791 210.004 42.6284V82.658C210.004 84.0072 208.89 85.1421 207.465 85.1421H183.935C181.08 85.1421 178.178 87.7222 178.178 92.5948L178.178 106.605C178.178 108.248 178.184 110.375 178.813 112.089C179.148 113.001 179.7 113.923 180.623 114.605C181.557 115.296 182.689 115.605 183.935 115.605H207.465C208.89 115.605 210.004 116.74 210.004 118.089V208.061C210.004 209.411 208.89 210.546 207.465 210.546H125.343C121.755 210.546 118.805 213.426 118.805 217.03V234.525C118.805 238.128 121.755 241.009 125.343 241.009H274.492C278.08 241.009 281.03 238.128 281.03 234.525V61.3254C281.03 32.9564 257.76 10 229.106 10H136.203C134.273 10 132.449 10.8448 131.211 12.2965C130.195 13.4873 130.622 15.1096 131.677 15.8512L155.602 32.6685C157.214 34.2593 159.289 35.9168 161.464 37.1978C163.625 38.471 166.126 39.5166 168.473 39.5217ZM81.0262 118.089V208.061C81.0262 209.411 82.14 210.546 83.5648 210.546H107.927C111.516 210.546 114.466 213.426 114.466 217.03V234.525C114.466 238.128 111.516 241.009 107.927 241.009H61.9244C33.2702 241.009 10 218.052 10 189.683V61.3254C10 32.9565 33.2702 10 61.9244 10H114.508C115.889 10 117.236 10.4333 118.355 11.2407L142.163 28.4167C147.329 32.1434 144.592 40.1442 138.316 40.1442L83.5648 40.1442C82.14 40.1442 81.0262 41.2791 81.0262 42.6284V82.658C81.0262 84.0072 82.14 85.1421 83.5648 85.1421H167.858C171.446 85.1421 174.396 88.0225 174.396 91.6262V109.121C174.396 112.725 171.446 115.605 167.858 115.605H83.5648C82.14 115.605 81.0262 116.74 81.0262 118.089ZM79.0262 118.089C79.0262 115.613 81.0582 113.605 83.5648 113.605H167.858C170.364 113.605 172.396 111.598 172.396 109.121V91.6262C172.396 89.1497 170.364 87.1421 167.858 87.1421H83.5648C81.0582 87.1421 79.0262 85.1345 79.0262 82.658V42.6284C79.0262 40.1519 81.0582 38.1442 83.5648 38.1442L138.316 38.1442C142.708 38.1442 144.539 32.5971 140.993 30.0387L117.185 12.8627C116.408 12.3021 115.471 12 114.508 12H61.9244C34.3519 12 12 34.0837 12 61.3254V189.683C12 216.925 34.3519 239.009 61.9244 239.009H107.927C110.434 239.009 112.466 237.001 112.466 234.525V217.03C112.466 214.553 110.434 212.546 107.927 212.546H83.5648C81.0582 212.546 79.0262 210.538 79.0262 208.061V118.089Z" fill="#60C2FF"/>
</g>
<defs>
<filter id="filter0_dddddf_2009_27" x="0.846272" y="0.846272" width="289.337" height="249.316" filterUnits="userSpaceOnUse" color-interpolation-filters="sRGB">
<feFlood flood-opacity="0" result="BackgroundImageFix"/>
<feColorMatrix in="SourceAlpha" type="matrix" values="0 0 0 0 0 0 0 0 0 0 0 0 0 0 0 0 0 0 127 0" result="hardAlpha"/>
<feOffset/>
<feGaussianBlur stdDeviation="1.52562"/>
<feColorMatrix type="matrix" values="0 0 0 0 0.297054 0 0 0 0 1 0 0 0 0 0.493879 0 0 0 0.2 0"/>
<feBlend mode="normal" in2="BackgroundImageFix" result="effect1_dropShadow_2009_27"/>
<feColorMatrix in="SourceAlpha" type="matrix" values="0 0 0 0 0 0 0 0 0 0 0 0 0 0 0 0 0 0 127 0" result="hardAlpha"/>
<feOffset/>
<feGaussianBlur stdDeviation="1.52562"/>
<feColorMatrix type="matrix" values="0 0 0 0 1 0 0 0 0 0.971882 0 0 0 0 0.297054 0 0 0 0.2 0"/>
<feBlend mode="normal" in2="effect1_dropShadow_2009_27" result="effect2_dropShadow_2009_27"/>
<feColorMatrix in="SourceAlpha" type="matrix" values="0 0 0 0 0 0 0 0 0 0 0 0 0 0 0 0 0 0 127 0" result="hardAlpha"/>
<feOffset/>
<feGaussianBlur stdDeviation="4.57686"/>
<feColorMatrix type="matrix" values="0 0 0 0 0.197835 0 0 0 0 0.767597 0 0 0 0 1 0 0 0 1 0"/>
<feBlend mode="normal" in2="effect2_dropShadow_2009_27" result="effect3_dropShadow_2009_27"/>
<feColorMatrix in="SourceAlpha" type="matrix" values="0 0 0 0 0 0 0 0 0 0 0 0 0 0 0 0 0 0 127 0" result="hardAlpha"/>
<feOffset/>
<feGaussianBlur stdDeviation="1.52562"/>
<feColorMatrix type="matrix" values="0 0 0 0 0.485938 0 0 0 0 0.851066 0 0 0 0 1 0 0 0 1 0"/>
<feBlend mode="normal" in2="effect3_dropShadow_2009_27" result="effect4_dropShadow_2009_27"/>
<feColorMatrix in="SourceAlpha" type="matrix" values="0 0 0 0 0 0 0 0 0 0 0 0 0 0 0 0 0 0 127 0" result="hardAlpha"/>
<feOffset/>
<feGaussianBlur stdDeviation="0.305124"/>
<feColorMatrix type="matrix" values="0 0 0 0 0.661768 0 0 0 0 0.902007 0 0 0 0 1 0 0 0 1 0"/>
<feBlend mode="normal" in2="effect4_dropShadow_2009_27" result="effect5_dropShadow_2009_27"/>
<feBlend mode="normal" in="SourceGraphic" in2="effect5_dropShadow_2009_27" result="shape"/>
<feGaussianBlur stdDeviation="0.305124" result="effect6_foregroundBlur_2009_27"/>
</filter>
</defs>
</svg>
