<svg width="371" height="404" viewBox="0 0 371 404" fill="none" xmlns="http://www.w3.org/2000/svg">
<g filter="url(#filter0_dddddf_2009_33)">
<path fill-rule="evenodd" clip-rule="evenodd" d="M96.7333 12.6769C113.736 -3.95627 180.742 60.9838 183.321 95.4987C183.371 96.1775 183.397 96.8445 183.397 97.4988C182.742 97.4988 182.075 97.4746 181.397 97.427C146.143 94.9541 79.7235 29.3172 96.7333 12.6769ZM98.1319 14.1066C99.7641 12.5099 102.101 11.7877 105.267 12.0535C108.467 12.3222 112.338 13.5962 116.688 15.7898C125.375 20.1699 135.5 27.9713 145.168 37.4336C154.822 46.8825 163.923 57.8924 170.596 68.604C176.736 78.4598 180.677 87.8365 181.308 95.4151C173.525 94.808 163.908 90.935 153.818 84.9131C142.869 78.3785 131.617 69.4679 121.963 60.0188C112.293 50.5548 104.326 40.6481 99.8553 32.1541C97.6159 27.8994 96.322 24.1256 96.05 21.0169C95.782 17.9529 96.5082 15.6951 98.1319 14.1066Z" fill="#60C2FF"/>
<path fill-rule="evenodd" clip-rule="evenodd" d="M12.2036 110.977C12.2036 76.9831 145.471 76.52 181.949 109.595C182.45 110.05 182.933 110.51 183.397 110.978C182.922 111.432 182.427 111.88 181.913 112.322C145.38 143.718 12.2036 143.269 12.2036 110.977ZM14.2036 110.977C14.2036 107.419 15.9451 104.165 19.4484 101.195C22.982 98.2002 28.1916 95.6089 34.7509 93.4962C47.8542 89.2756 65.8158 87.1306 84.9608 87.1304C104.086 87.1303 124.253 89.2705 141.729 93.5349C158.236 97.5626 172.074 103.422 180.453 110.939C172.071 118.065 158.243 123.625 141.75 127.449C124.266 131.503 104.091 133.537 84.9592 133.537C65.8082 133.537 47.8365 131.499 34.7225 127.485C28.156 125.475 22.9425 123.01 19.4096 120.165C15.9024 117.34 14.2036 114.279 14.2036 110.977Z" fill="#60C2FF"/>
<path fill-rule="evenodd" clip-rule="evenodd" d="M12.2036 301.975H14.2036C98.4682 301.974 140.766 301.808 161.998 280.576C183.23 259.344 183.396 217.046 183.397 132.782V130.782C182.728 130.782 182.061 130.784 181.397 130.789C23.0361 132.032 12.8971 280.916 12.248 299.975C12.2036 301.279 12.2036 301.975 12.2036 301.975ZM181.397 132.789C139.951 133.117 108.871 143.637 85.5352 159.195C61.8126 175.01 45.9725 196.111 35.3916 217.273C24.8067 238.442 19.5043 259.636 16.8512 275.555C15.5255 283.509 14.8634 290.134 14.5328 294.761C14.3739 296.986 14.2917 298.749 14.2492 299.975C56.0703 299.974 87.3991 299.929 110.954 297.312C134.906 294.651 150.38 289.365 160.584 279.161C170.788 268.958 176.073 253.484 178.734 229.532C181.352 205.97 181.396 174.629 181.397 132.789Z" fill="#60C2FF"/>
<path fill-rule="evenodd" clip-rule="evenodd" d="M359.349 301.975H357.349C273.084 301.974 230.787 301.808 209.555 280.576C188.323 259.344 188.157 217.046 188.156 132.782V130.782C188.825 130.782 189.492 130.784 190.156 130.789C348.517 132.032 358.656 280.916 359.305 299.975C359.349 301.279 359.349 301.975 359.349 301.975ZM190.156 132.789C231.602 133.117 262.681 143.637 286.017 159.195C309.74 175.01 325.58 196.111 336.161 217.273C346.746 238.442 352.048 259.636 354.701 275.555C356.027 283.509 356.689 290.134 357.02 294.761C357.179 296.986 357.261 298.749 357.303 299.975C315.482 299.974 284.154 299.929 260.599 297.312C236.647 294.651 221.173 289.365 210.969 279.161C200.765 268.958 195.48 253.484 192.818 229.532C190.2 205.97 190.156 174.629 190.156 132.789Z" fill="#60C2FF"/>
<path fill-rule="evenodd" clip-rule="evenodd" d="M189.604 109.595C226.082 76.52 359.349 76.9831 359.349 110.977C359.349 143.269 226.172 143.718 189.64 112.322C189.126 111.88 188.631 111.432 188.156 110.978C188.62 110.51 189.103 110.05 189.604 109.595ZM352.104 101.195C355.608 104.165 357.349 107.419 357.349 110.977C357.349 114.279 355.65 117.34 352.143 120.165C348.61 123.01 343.397 125.475 336.83 127.485C323.716 131.499 305.744 133.537 286.593 133.537C267.462 133.537 247.287 131.503 229.803 127.449C213.31 123.625 199.482 118.065 191.1 110.939C199.479 103.422 213.317 97.5626 229.823 93.5349C247.3 89.2705 267.467 87.1303 286.592 87.1304C305.737 87.1306 323.698 89.2756 336.802 93.4962C343.361 95.6089 348.571 98.2002 352.104 101.195Z" fill="#60C2FF"/>
<path fill-rule="evenodd" clip-rule="evenodd" d="M188.225 95.4987C190.803 60.9838 257.809 -3.95627 274.812 12.6769C291.822 29.3172 225.402 94.9541 190.148 97.427C189.47 97.4746 188.803 97.4988 188.148 97.4988C188.148 96.8445 188.174 96.1775 188.225 95.4987ZM266.278 12.0535C269.444 11.7877 271.781 12.5099 273.413 14.1066C275.037 15.6951 275.763 17.9529 275.495 21.0169C275.223 24.1256 273.929 27.8994 271.69 32.1541C267.219 40.6481 259.252 50.5548 249.582 60.0188C239.928 69.4679 228.677 78.3785 217.727 84.9131C207.637 90.935 198.02 94.808 190.237 95.4151C190.868 87.8365 194.809 78.4598 200.949 68.604C207.622 57.8924 216.724 46.8825 226.378 37.4336C236.045 27.9713 246.17 20.1699 254.857 15.7898C259.208 13.5962 263.078 12.3222 266.278 12.0535Z" fill="#60C2FF"/>
<path fill-rule="evenodd" clip-rule="evenodd" d="M326.34 321.142H311.91C310.775 321.142 309.707 321.71 309.079 322.667L289.599 352.348V338.158C289.599 328.739 281.882 321.142 272.411 321.142H270.092C268.246 321.142 266.711 322.627 266.711 324.507V390.883C266.711 392.763 268.246 394.248 270.092 394.248H286.882C288.069 394.248 289.179 393.626 289.791 392.596L329.25 326.221C330.604 323.943 328.919 321.142 326.34 321.142ZM311.91 323.142C311.442 323.142 311.006 323.376 310.751 323.764L290.138 355.171C289.39 356.312 287.599 355.788 287.599 354.428V338.158C287.599 329.865 280.799 323.142 272.411 323.142H270.092C269.329 323.142 268.711 323.753 268.711 324.507V390.883C268.711 391.637 269.329 392.248 270.092 392.248H286.882C287.371 392.248 287.824 391.991 288.072 391.574L327.531 325.199C328.072 324.289 327.408 323.142 326.34 323.142H311.91Z" fill="#60C2FF"/>
<path fill-rule="evenodd" clip-rule="evenodd" d="M235.264 351.477C235.264 352.231 235.882 352.842 236.645 352.842H241.472C242.235 352.842 242.853 352.231 242.853 351.477V337.979C242.853 334.18 239.738 331.101 235.896 331.101C235.547 331.101 235.264 331.381 235.264 331.726V351.477ZM237.264 350.842H240.853V337.979C240.853 335.767 239.347 333.875 237.264 333.288V350.842Z" fill="#60C2FF"/>
<path fill-rule="evenodd" clip-rule="evenodd" d="M185.446 321.142H181.725C172.254 321.142 164.537 328.739 164.537 338.158V377.232C164.537 386.651 172.254 394.248 181.725 394.248H205.639C206.553 394.248 207.433 393.879 208.073 393.218L212.862 388.274V390.883C212.862 392.763 214.398 394.248 216.243 394.248H233.883C235.729 394.248 237.264 392.763 237.264 390.883V362.898H240.853V390.883C240.853 392.763 242.388 394.248 244.234 394.248H261.874C263.719 394.248 265.255 392.763 265.255 390.883V338.158C265.255 328.739 257.538 321.142 248.066 321.142H216.243C214.398 321.142 212.862 322.627 212.862 324.507V382.887C212.307 382.457 211.603 382.192 210.798 382.192H188.827V324.507C188.827 322.627 187.292 321.142 185.446 321.142ZM181.725 323.142C173.337 323.142 166.537 329.865 166.537 338.158V377.232C166.537 385.525 173.337 392.248 181.725 392.248H205.639C206.016 392.248 206.376 392.096 206.636 391.827L211.796 386.501C212.637 385.633 212.014 384.192 210.798 384.192H188.208C187.445 384.192 186.827 383.581 186.827 382.827V324.507C186.827 323.753 186.209 323.142 185.446 323.142H181.725ZM248.066 323.142C256.455 323.142 263.255 329.865 263.255 338.158V390.883C263.255 391.637 262.636 392.248 261.874 392.248H244.234C243.471 392.248 242.853 391.637 242.853 390.883V362.263C242.853 361.509 242.235 360.898 241.472 360.898H236.645C235.882 360.898 235.264 361.509 235.264 362.263V390.883C235.264 391.637 234.646 392.248 233.883 392.248H216.243C215.481 392.248 214.862 391.637 214.862 390.883V324.507C214.862 323.753 215.481 323.142 216.243 323.142H248.066Z" fill="#60C2FF"/>
<path fill-rule="evenodd" clip-rule="evenodd" d="M162.783 321.142H133.399C125.147 321.142 118.227 326.909 116.582 334.623C114.937 326.909 108.016 321.142 99.7646 321.142H78.164C68.6929 321.142 60.9759 328.739 60.9759 338.158V383.116C60.3665 382.541 59.5443 382.192 58.649 382.192H34.2849V356.073H51.1365C52.982 356.073 54.5173 354.587 54.5173 352.708V347.382C54.5173 345.502 52.982 344.017 51.1365 344.017H34.2849V333.101H57.8463C61.0697 333.101 62.5263 328.957 59.8312 327.012L52.5882 321.783C52.0096 321.365 51.3146 321.142 50.6034 321.142H27.0821C17.611 321.142 9.89404 328.739 9.89404 338.158V377.232C9.89404 386.651 17.611 394.248 27.0821 394.248H58.649C59.8385 394.248 60.8991 393.631 61.5028 392.689C62.1065 393.631 63.1671 394.248 64.3567 394.248H82.1894C84.0349 394.248 85.5702 392.763 85.5702 390.883V333.101H92.3585V390.883C92.3585 392.763 93.8937 394.248 95.7392 394.248H113.572C115.417 394.248 116.953 392.763 116.953 390.883V382.195C119.1 389.182 125.665 394.248 133.399 394.248H162.357C164.203 394.248 165.738 392.763 165.738 390.883V385.557C165.738 383.677 164.203 382.192 162.357 382.192H140.86V333.101H156.421C157.205 333.101 157.966 332.83 158.574 332.331L164.935 327.102C167.419 325.061 165.901 321.142 162.783 321.142ZM33.6656 354.073C32.9031 354.073 32.2849 354.684 32.2849 355.438V382.827C32.2849 383.581 32.9031 384.192 33.6656 384.192H58.649C59.4115 384.192 60.0297 384.803 60.0297 385.557V390.883C60.0297 391.637 59.4115 392.248 58.649 392.248H27.0821C18.694 392.248 11.894 385.525 11.894 377.232V338.158C11.894 329.865 18.694 323.142 27.0821 323.142H50.6034C50.8961 323.142 51.1812 323.234 51.4176 323.405L58.6605 328.633C59.7394 329.412 59.1821 331.101 57.8463 331.101H33.6656C32.9031 331.101 32.2849 331.712 32.2849 332.466V344.652C32.2849 345.406 32.9031 346.017 33.6656 346.017H51.1365C51.8991 346.017 52.5173 346.628 52.5173 347.382V352.708C52.5173 353.461 51.8991 354.073 51.1365 354.073H33.6656ZM113.572 392.248C114.335 392.248 114.953 391.637 114.953 390.883V338.158C114.953 329.865 108.153 323.142 99.7646 323.142H78.164C69.7759 323.142 62.9759 329.865 62.9759 338.158V390.883C62.9759 391.637 63.5941 392.248 64.3567 392.248H82.1894C82.952 392.248 83.5702 391.637 83.5702 390.883V332.466C83.5702 331.712 84.1884 331.101 84.9509 331.101H92.9777C93.7403 331.101 94.3585 331.712 94.3585 332.466V390.883C94.3585 391.637 94.9766 392.248 95.7392 392.248H113.572ZM118.211 338.158C118.211 329.865 125.011 323.142 133.399 323.142H162.783C164.075 323.142 164.659 324.74 163.665 325.557L157.304 330.785C157.056 330.989 156.744 331.101 156.421 331.101H140.241C139.479 331.101 138.86 331.712 138.86 332.466V382.827C138.86 383.581 139.479 384.192 140.241 384.192H162.357C163.12 384.192 163.738 384.803 163.738 385.557V390.883C163.738 391.637 163.12 392.248 162.357 392.248H133.399C125.011 392.248 118.211 385.525 118.211 377.232V338.158Z" fill="#60C2FF"/>
<path fill-rule="evenodd" clip-rule="evenodd" d="M318.87 356.073H337.26V382.192H312.896C311.051 382.192 309.515 383.677 309.515 385.557V390.883C309.515 392.763 311.051 394.248 312.896 394.248H358.27C360.116 394.248 361.651 392.763 361.651 390.883V338.158C361.651 328.739 353.934 321.142 344.463 321.142H335.027C333.921 321.142 332.876 321.682 332.242 322.6L328.628 327.828C327.06 330.096 328.733 333.101 331.413 333.101H337.26V344.017H322.521C321.41 344.017 320.362 344.561 319.729 345.485L316.078 350.811C314.522 353.079 316.196 356.073 318.87 356.073ZM339.26 355.438C339.26 354.684 338.642 354.073 337.879 354.073H318.87C317.763 354.073 317.106 352.848 317.727 351.942L321.379 346.616C321.635 346.241 322.064 346.017 322.521 346.017H337.879C338.642 346.017 339.26 345.406 339.26 344.652V332.466C339.26 331.712 338.642 331.101 337.879 331.101H331.413C330.303 331.101 329.647 329.872 330.273 328.966L333.887 323.737C334.145 323.365 334.571 323.142 335.027 323.142H344.463C352.851 323.142 359.651 329.865 359.651 338.158V390.883C359.651 391.637 359.033 392.248 358.27 392.248H312.896C312.134 392.248 311.515 391.637 311.515 390.883V385.557C311.515 384.803 312.134 384.192 312.896 384.192H337.879C338.642 384.192 339.26 383.581 339.26 382.827V355.438Z" fill="#60C2FF"/>
</g>
<defs>
<filter id="filter0_dddddf_2009_33" x="0.740315" y="0.846272" width="370.064" height="402.555" filterUnits="userSpaceOnUse" color-interpolation-filters="sRGB">
<feFlood flood-opacity="0" result="BackgroundImageFix"/>
<feColorMatrix in="SourceAlpha" type="matrix" values="0 0 0 0 0 0 0 0 0 0 0 0 0 0 0 0 0 0 127 0" result="hardAlpha"/>
<feOffset/>
<feGaussianBlur stdDeviation="1.52562"/>
<feColorMatrix type="matrix" values="0 0 0 0 0.297054 0 0 0 0 1 0 0 0 0 0.493879 0 0 0 0.2 0"/>
<feBlend mode="normal" in2="BackgroundImageFix" result="effect1_dropShadow_2009_33"/>
<feColorMatrix in="SourceAlpha" type="matrix" values="0 0 0 0 0 0 0 0 0 0 0 0 0 0 0 0 0 0 127 0" result="hardAlpha"/>
<feOffset/>
<feGaussianBlur stdDeviation="1.52562"/>
<feColorMatrix type="matrix" values="0 0 0 0 1 0 0 0 0 0.971882 0 0 0 0 0.297054 0 0 0 0.2 0"/>
<feBlend mode="normal" in2="effect1_dropShadow_2009_33" result="effect2_dropShadow_2009_33"/>
<feColorMatrix in="SourceAlpha" type="matrix" values="0 0 0 0 0 0 0 0 0 0 0 0 0 0 0 0 0 0 127 0" result="hardAlpha"/>
<feOffset/>
<feGaussianBlur stdDeviation="4.57686"/>
<feColorMatrix type="matrix" values="0 0 0 0 0.197835 0 0 0 0 0.767597 0 0 0 0 1 0 0 0 1 0"/>
<feBlend mode="normal" in2="effect2_dropShadow_2009_33" result="effect3_dropShadow_2009_33"/>
<feColorMatrix in="SourceAlpha" type="matrix" values="0 0 0 0 0 0 0 0 0 0 0 0 0 0 0 0 0 0 127 0" result="hardAlpha"/>
<feOffset/>
<feGaussianBlur stdDeviation="1.52562"/>
<feColorMatrix type="matrix" values="0 0 0 0 0.485938 0 0 0 0 0.851066 0 0 0 0 1 0 0 0 1 0"/>
<feBlend mode="normal" in2="effect3_dropShadow_2009_33" result="effect4_dropShadow_2009_33"/>
<feColorMatrix in="SourceAlpha" type="matrix" values="0 0 0 0 0 0 0 0 0 0 0 0 0 0 0 0 0 0 127 0" result="hardAlpha"/>
<feOffset/>
<feGaussianBlur stdDeviation="0.305124"/>
<feColorMatrix type="matrix" values="0 0 0 0 0.661768 0 0 0 0 0.902007 0 0 0 0 1 0 0 0 1 0"/>
<feBlend mode="normal" in2="effect4_dropShadow_2009_33" result="effect5_dropShadow_2009_33"/>
<feBlend mode="normal" in="SourceGraphic" in2="effect5_dropShadow_2009_33" result="shape"/>
<feGaussianBlur stdDeviation="0.305124" result="effect6_foregroundBlur_2009_33"/>
</filter>
</defs>
</svg>
